<svg xmlns="http://www.w3.org/2000/svg" version="1.1" xmlns:xlink="http://www.w3.org/1999/xlink" xmlns:svgjs="http://svgjs.dev/svgjs" viewBox="0 0 9.460323150447964 9.460323150447964"><g transform="matrix(0.8571428571428571,0,0,0.8571428571428571,3.24929670020627,3.24929670020627)"><g><path d=" M -1.4303547535986851 3.3898461743756747 L -1.539125738462464 3.1294220867180043 L -1.1137964326686216 2.9517753571134935 Q -1.0777515762454146 2.936720549519891 -1.0554397545267253 2.9160246663033322 Q -1.033127932808036 2.8953287830867733 -1.0230264718087887 2.870737069778684 Q -1.0129250108095418 2.8461453564705943 -1.0141499823448719 2.819140682992029 Q -1.015374953880202 2.792136009513464 -1.0266660595754038 2.7651023671960586 Q -1.039086275840126 2.735365360646913 -1.0575266467239395 2.715286440422664 Q -1.0759670176077527 2.695207520198415 -1.1005017336261074 2.685875992804563 Q -1.1250364496444618 2.676544465410711 -1.1553832331549776 2.6786361719051914 Q -1.1857300166654934 2.6807278783996713 -1.2217748730887004 2.695782685993274 L -1.6462030574719626 2.873053045407945 L -1.6876037783543698 2.7739296902441257 L -1.2784946579509708 2.603057624056736 Q -1.2163172806209386 2.5770880809577714 -1.1579308056097974 2.5762494868070567 Q -1.0995443305986563 2.575410892656342 -1.0487441374499418 2.5975843405389067 Q -0.9979439443012273 2.619757788421471 -0.9571909236683198 2.66411905624848 Q -0.9164379030354124 2.7084803240754884 -0.8895274344618478 2.772910504931971 Q -0.8528313409524413 2.860769842463538 -0.8451836969331754 2.9316580226433313 Q -0.8375360529139094 3.002546202823125 -0.8555178490310882 3.0576810111555357 Q -0.8734996451482671 3.112815819487946 -0.9151575487435352 3.1524397295513333 Q -0.9568154523388035 3.1920636396147204 -1.0189928296688353 3.2180331827136848 L -1.4303547535986851 3.3898461743756747 M -1.7830558013456574 2.3924354865327584 L -1.8187880399508565 1.9755068426057376 Q -1.8257093370435789 1.8947482021251245 -1.813872885665401 1.832719912136681 Q -1.802036434287223 1.7706916221482376 -1.7748685665580886 1.7274422956604503 Q -1.7477006988289543 1.684192969172663 -1.7066400609711252 1.6600909387850402 Q -1.665579423113296 1.635988908397418 -1.6140106526859168 1.6315692849526675 Q -1.5502794364030232 1.626107297487929 -1.4983148434600653 1.652038165288451 Q -1.4463502505171073 1.6779690330889734 -1.4120736440463306 1.7348200952159099 L -1.1258861789701395 1.5573906160473827 L -1.098659630768045 1.875073701793409 L -1.3515285448984584 2.0124022535012087 L -1.3464418084809155 2.0717549892761173 L -1.084219475836033 2.049281621005169 L -1.0601200196939033 2.3304773691846536 L -1.7830558013456574 2.3924354865327584 M -1.4359572261028206 2.062274280583113 Q -1.4389175399195875 2.027732934353453 -1.4509823920087725 2.0013229468530924 Q -1.4630472440979576 1.9749129593527315 -1.4824305029181897 1.9574613952873126 Q -1.501813761738422 1.9400098312218936 -1.5272574881433507 1.9318989520236383 Q -1.552701214548279 1.9237880728253827 -1.5818910846015126 1.9262897464733548 Q -1.6110809546547464 1.9287914201213265 -1.6347735095060947 1.9411134499603349 Q -1.6584660643574427 1.953435479799343 -1.6745971474353114 1.9739307468031277 Q -1.69072823051318 1.9944260138069125 -1.6981232917928177 2.0225037837392548 Q -1.705518353072455 2.050581553671597 -1.7025580392556883 2.0851228999012568 L -1.7011404241885042 2.1016638262647556 L -1.434497916474837 2.0793017047808324 L -1.4359572261028206 2.062274280583113 M -1.8082119264412524 1.244492724411453 L -1.745340177318456 0.9693582559368423 L -1.2959856128893341 1.0720415278605788 Q -1.2579047175987306 1.0807435000575056 -1.2277194078895526 1.0768725766171585 Q -1.1975340981803746 1.0730016531768116 -1.1750198432020007 1.0588630464379796 Q -1.1525055882236266 1.0447244396991477 -1.137805093664106 1.0220385761570254 Q -1.1231045991045852 0.9993527126149033 -1.11657811995689 0.9707920411469506 Q -1.1093989928944255 0.9393753025322027 -1.1127325362717104 0.912317996600974 Q -1.1160660796489956 0.8852606906697452 -1.1306058539620862 0.8634060651518393 Q -1.1451456282751769 0.8415514396339333 -1.1710547955027653 0.8256135113160489 Q -1.1969639627303537 0.8096755829981644 -1.2350448580209572 0.8009736108012376 L -1.6834474000678141 0.6985078881824244 L -1.6595169765262656 0.5937854261332646 L -1.227298814977915 0.6925528105683839 Q -1.1616092706016239 0.7075637126080827 -1.113612500420452 0.740820197036717 Q -1.0656157302392801 0.774076681465351 -1.0371683732372252 0.8216484093564541 Q -1.0087210162351705 0.8692201372475572 -1.0013464058931476 0.9290059708223191 Q -0.9939717955511246 0.9887918043970808 -1.0095265708531311 1.0568614047290346 Q -1.0307376280831404 1.1496835869998807 -1.0657205438597628 1.2118110056812812 Q -1.1007034596363854 1.2739384243626817 -1.1473840456707003 1.308349395998838 Q -1.1940646317050152 1.3427603676349942 -1.2509943981329816 1.3507876258917866 Q -1.307924164560948 1.358814884148579 -1.3736137089372393 1.3438039821088803 L -1.8082119264412524 1.244492724411453 M -0.9847798454673273 0.3618975342885694 L -1.55951131456144 0.32087556548227925 L -1.4079395650729585 0.05151018760563586 L -0.9943390283173609 0.07918195980994147 L -1.2496632200304838 -0.229770246480401 L -1.1869273616324076 -0.34126112958258203 L -0.8391943420091964 0.10317059945602725 L -0.6608940365900595 0.20350008292470623 L -0.8064795400481904 0.4622270177572484 L -0.9847798454673273 0.3618975342885694 M -0.6983991972450299 -0.6178606367718122 L -0.8854527327631653 -0.6926400642934476 L -0.670004457415169 -0.8975960636819519 L 0.08798555168835687 -0.616539219859884 L -0.1430287731100694 -0.39677523365184897 L -0.2620416436236057 -0.44395344317580243 L -0.4693531203952409 -0.2467379823520528 L -0.42781672328270814 -0.12585638388543524 L -0.5173215076226804 -0.040710459673133775 L -0.6983991972450299 -0.6178606367718122 M -0.3762567384865073 -0.4896304138143873 L -0.580076645737629 -0.5706996559440156 L -0.508921932666308 -0.3634259806933871 L -0.3762567384865073 -0.4896304138143873 M -0.11378211787774933 -1.3355795387442915 L 0.046377407905476314 -1.410360890568643 L 0.6271985776802502 -1.2547599799334184 L 0.46403097790372216 -1.605370824607836 L 0.5613654963355167 -1.6508180549983256 L 0.86834087979128 -0.9933676259544768 L 0.7081813540080545 -0.9185862741301254 L 0.12753748956391542 -1.0726533175576867 L 0.2905277840098086 -0.7235763400909324 L 0.19319326557801403 -0.6781291097004426 L -0.11378211787774933 -1.3355795387442915 M 0.9858710557097055 -1.4006373317917378 Q 0.9801166943771942 -1.4520742687188144 0.9881139696058946 -1.5013646764920323 Q 0.996111244834595 -1.5506550842652502 1.0172153669465913 -1.5947788652975579 Q 1.0383194890585874 -1.6389026463298655 1.0718840065124469 -1.6770504897968346 Q 1.1054485239663063 -1.7151983332638037 1.1505317335954712 -1.7448082524865036 Q 1.1956149432246361 -1.7744181717092038 1.251867306976316 -1.7942227449550854 Q 1.3081196707279956 -1.814027318200967 1.3745994854356325 -1.8214645587910994 Q 1.417301848167545 -1.8262417644256372 1.4569619556891231 -1.8252740265111966 Q 1.4966220632107015 -1.8243062885967563 1.532133691208875 -1.8186981695828912 Q 1.5676453192070487 -1.8130900505690264 1.5983874974907013 -1.8040003993329554 Q 1.6291296757743539 -1.7949107480968844 1.6544271477247037 -1.7839836676377798 L 1.6218154130844518 -1.6977923423703758 Q 1.5931754487080925 -1.7078541637138702 1.557475480076607 -1.7129498853919491 Q 1.521775511445122 -1.718045607070028 1.4844109440546984 -1.7138655521398076 Q 1.4344297694934824 -1.7082740500902918 1.3937360045851823 -1.6855424419434728 Q 1.3530422396768822 -1.6628108337966536 1.3256774529530884 -1.6263392221332391 Q 1.2983126662292945 -1.5898676104698248 1.285839531047682 -1.541059133091527 Q 1.273366395866069 -1.4922506557132293 1.2798807671858932 -1.434020161078803 Q 1.2863408520780522 -1.3762749205663303 1.309048640738072 -1.3314022091937598 Q 1.3317564293980917 -1.2865294978211892 1.3662886864372086 -1.256736778624111 Q 1.4008209434763255 -1.2269440594270329 1.4453164201847062 -1.2134970922744799 Q 1.4898118968930874 -1.2000501251219267 1.5393078173323498 -1.2055873407437772 L 1.5120017442167537 -1.449670164086414 L 1.7949048973156747 -1.4813191514152262 L 1.7546986034612282 -1.3839603338888238 L 1.7766303202379694 -1.1879176686195887 L 1.7772241472152532 -1.1870014468033467 Q 1.7550210016418202 -1.1702690423110989 1.7215484384081248 -1.1532585582264585 Q 1.6880758751744294 -1.1362480741418182 1.646298043576342 -1.1210107616714464 Q 1.604520211978254 -1.1057734492010747 1.5567005233425466 -1.0940365028491585 Q 1.5088808347068388 -1.0822995564972422 1.457929151901716 -1.076599481592396 Q 1.3584520569012375 -1.06547076392103 1.2753434249661335 -1.0858985209482943 Q 1.1922347930310293 -1.1063262779755587 1.1307576373153574 -1.1507923945382068 Q 1.0692804815996853 -1.195258511100855 1.0318643964402463 -1.2596128458119658 Q 0.9944483112808072 -1.3239671805230764 0.9858710557097055 -1.4006373317917378 M 2.094922337064792 -1.8195543842684632 L 2.6979013274019934 -1.7076158796621754 L 2.6774921573742545 -1.5976778312647082 L 2.35247880032148 -1.6580141112157087 L 2.3162603932056687 -1.4655916298298717 L 2.564941218838368 -1.4194259089811 L 2.544532048810629 -1.3094878605836326 L 2.2958512231779302 -1.3556535814324042 L 2.2603802639157466 -1.1645822134752337 L 2.585873699782484 -1.1041568105110116 L 2.5654645297547454 -0.9942187621135441 L 1.962485539417544 -1.1061572667198318 L 2.094922337064792 -1.8195543842684632 M 3.1740528364524914 -1.1371644502397429 Q 3.2021177765418143 -1.1806527278851942 3.239479325919628 -1.2137830061457657 Q 3.2768408752974416 -1.246913284406337 3.3210899189087755 -1.2677534898320848 Q 3.365338962520109 -1.2885936952578323 3.4154629548309803 -1.2969255730720182 Q 3.465586947141852 -1.3052574508862045 3.519236403297919 -1.2996915762019992 Q 3.572885859453986 -1.2941257015177938 3.6289886037206376 -1.2739011709953454 Q 3.6850913479872895 -1.2536766404728972 3.7412978955101845 -1.2174040292253758 Q 3.7774013712913135 -1.1941048336795228 3.8075154468524106 -1.168278430554141 Q 3.8376295224135077 -1.1424520274287593 3.861595573178463 -1.1156536108209456 Q 3.885561623943418 -1.088855194213132 3.903631292106362 -1.0623751946342352 Q 3.9217009602693063 -1.0358951950553386 3.9343906516101184 -1.0114343097869474 L 3.8546274269637495 -0.9652791607609656 Q 3.8388011046455084 -0.9911831243593552 3.814365156909685 -1.0177036559898027 Q 3.7899292091738612 -1.0442241876202503 3.758338667865373 -1.0646109837228719 Q 3.716081190530642 -1.09188163305495 3.6701814620768243 -1.1000009581019192 Q 3.6242817336230067 -1.1081202831488883 3.5800207364967536 -1.097167012260454 Q 3.5357597393705 -1.08621374137202 3.495235316232022 -1.0562868689236637 Q 3.4547108930935444 -1.0263599964753074 3.4229392628037445 -0.9771279840464946 Q 3.3914323960996935 -0.9283062383879218 3.380652313803623 -0.8791840059728115 Q 3.369872231507553 -0.8300617735577014 3.3777878657940392 -0.785146012101235 Q 3.3857035000805253 -0.7402302506447687 3.4116732080109724 -0.7016784330077857 Q 3.4376429159414195 -0.6631266153708029 3.4794901265059104 -0.6361207296244731 Q 3.509029333963198 -0.6170577514505933 3.5432019041710814 -0.6051744417559153 Q 3.5773744743789653 -0.5932911320612374 3.609668624580073 -0.5893030532533007 L 3.6004712844150024 -0.4976085674786062 Q 3.5726900686865357 -0.4986842468433113 3.5414549728284213 -0.5043133927322085 Q 3.5102198769703064 -0.5099425386211056 3.4763383131314063 -0.5204757876038066 Q 3.4424567492925067 -0.5310090365865078 3.4067230082300664 -0.5476771889737331 Q 3.370989267167626 -0.5643453413609583 3.3348857913864967 -0.5876445369068114 Q 3.2507811034872747 -0.6419210719852192 3.199310416720551 -0.7102958214403461 Q 3.1478397299538274 -0.778670570895473 3.1283268460869156 -0.8519912607466221 Q 3.108813962220004 -0.9253119505977714 3.1205170760621295 -0.9988271255697887 Q 3.132220189904255 -1.072342300541806 3.1740528364524914 -1.1371644502397429 M 3.9257866816644764 -0.6259686106678511 Q 3.989444881425789 -0.6784767685184987 4.059145577226969 -0.701789510476517 Q 4.128846273028149 -0.7251022524345354 4.200135332589758 -0.7161785634904818 Q 4.271424392151367 -0.7072548745464282 4.342230098913125 -0.664385909326465 Q 4.413035805674883 -0.6215169441065018 4.478904027357352 -0.5416616876011864 Q 4.544772249039822 -0.46180643109587094 4.573390273119526 -0.38413916008139576 Q 4.602008297199231 -0.3064718890669205 4.597208857637851 -0.23478697002919346 Q 4.592409418076469 -0.16310205099146635 4.556264231434284 -0.09910832930432506 Q 4.520119044792097 -0.03511460761718388 4.456460845030785 0.017393550233463728 Q 4.392049293793007 0.07052310640187043 4.321783584384478 0.09430189709820824 Q 4.251517874975949 0.11808068779454595 4.18022881541434 0.10915699885049224 Q 4.108939755852731 0.10023330990643864 4.038134049090973 0.057364344686475444 Q 3.967328342329215 0.014495379466512304 3.9014601206467456 -0.06535987703880314 Q 3.8355918989642768 -0.14521513354411858 3.806973874884572 -0.22288240455859382 Q 3.7783558508048674 -0.300549675573069 3.7831552903662478 -0.3722345946107961 Q 3.787954729927628 -0.4439195136485231 3.824664930177163 -0.5083792840739838 Q 3.8613751304266986 -0.5728390544994444 3.9257866816644764 -0.6259686106678511 M 3.979431998460898 -0.1296746029268745 Q 3.9980739479936727 -0.1070740586329173 4.020276299805018 -0.09627165701068774 Q 4.042478651616363 -0.08546925538845823 4.07508754557382 -0.09274495619490092 Q 4.107696439531276 -0.10002065700134355 4.154101957278938 -0.12817075266637445 Q 4.2005074750265985 -0.15632084833140547 4.267555756432005 -0.21162529861196916 Q 4.333850686360947 -0.26630835057477376 4.3699371552862285 -0.306201370704369 Q 4.406023624211511 -0.3460943908339642 4.418992494580202 -0.37641328825194975 Q 4.431961364948892 -0.40673218566993524 4.425579394143317 -0.43058395196510674 Q 4.419197423337741 -0.4544357182602783 4.4005554738049675 -0.4770362625542355 Q 4.381913524272193 -0.49963680684819267 4.359555822881408 -0.5106275463395384 Q 4.337198121490623 -0.5216182858308844 4.304965903271399 -0.5146532841833213 Q 4.272733685052175 -0.5076882825357582 4.2267048430427465 -0.4798488860296068 Q 4.1806760010333175 -0.45200948952345543 4.1143810711043765 -0.39732643756065084 Q 4.04733278969897 -0.34202198728008715 4.010869645035455 -0.30181826799161227 Q 3.97440650037194 -0.2616145487031375 3.961060954265017 -0.23098495212627246 Q 3.9477154081580936 -0.20035535554940737 3.954252728543109 -0.1763152513851195 Q 3.960790048928124 -0.15227514722083169 3.979431998460898 -0.1296746029268745 M 4.910572441540082 0.12298386174111864 L 5.138290580328505 0.6729158207024739 L 5.034980967037159 0.7156946999334408 L 4.915424273989915 0.426969143136667 L 4.720798849501701 0.5070319699281753 L 4.808598295958271 0.7190648007008061 L 4.705288682666925 0.7618436799317732 L 4.617489236210356 0.5498108491591422 L 4.348162427760865 0.6613348268922745 L 4.240187789352573 0.40057955841018805 L 4.910572441540082 0.12298386174111864 M 5.214933188988495 0.9895004231508964 L 5.294581269047094 1.5793621811614629 L 5.183770487599662 1.594324781927188 L 5.141953612097199 1.2846352617247576 L 4.933331736967902 1.3123124239456319 L 4.964041004915024 1.5397406653442915 L 4.853230223467591 1.5547032661100169 L 4.82252095552047 1.3272750247113572 L 4.53363869995664 1.366282328890999 L 4.495872834268478 1.0865939809581793 L 5.214933188988495 0.9895004231508964 M 5.289163269916584 1.910753496788083 L 5.208597285555373 2.518719790068781 L 5.097749927942889 2.5040306097991016 L 5.141176019831853 2.1763290329272604 L 4.9471362765028735 2.1501228816357587 L 4.913909222443075 2.400860572654391 L 4.803061864830592 2.3861713923847114 L 4.83628891889039 2.13543370136608 L 4.643637179459086 2.109904034347161 L 4.600146942678114 2.4380896608155633 L 4.48929958506563 2.423400480545884 L 4.569865569426841 1.815434187265186 L 5.289163269916584 1.910753496788083 M 5.107269421726551 2.8661208884516514 L 4.865450478132313 3.4297142614791647 L 4.76269340613924 3.3856246610945466 L 4.893036897232631 3.0818406534993024 L 4.713292372041199 3.0041869992363117 L 4.61356131090918 3.236624393526321 L 4.510804238916107 3.1925347931417027 L 4.610535300048125 2.960097398851693 L 4.43194440636584 2.8834700584452393 L 4.301408384266403 3.187702786878881 L 4.198651312273329 3.143613186494263 L 4.440470255867567 2.5800198134667496 L 5.107269421726551 2.8661208884516514" fill="#fffdfa" fill-rule="nonzero"></path></g><g transform="matrix(1,0,0,1,0,0)" clip-path="url(#SvgjsClipPath41536)"><path d=" M 0 0 L 3.4553513750413285 0 L 3.4553513750413285 3.4553513750413285 L 0 3.4553513750413285 Z" fill="#ba8437" transform="matrix(1,0,0,1,0,0)" fill-rule="nonzero" mask="url(#maskedIcon-51643179-cc3d-492d-9311-6c7c9651d34a)"></path></g><g><path d=" M -2.2391256251659875 1.727675687520664 A 3.9668013126866515 3.9668013126866515 0 0 1 5.694477000207316 1.727675687520664 A 3.9668013126866515 3.9668013126866515 0 0 1 -2.239125625165987 1.727675687520664 Z M -2.1891256251659876 1.727675687520664 A 3.9168013126866517 3.9168013126866517 0 0 0 5.644477000207315 1.727675687520664 A 3.9168013126866517 3.9168013126866517 0 0 0 -2.189125625165988 1.727675687520664 Z" fill="#fffdfa" fill-rule="nonzero"></path></g><g transform="matrix(-0.7860455813974215,-0.618168540096946,0.618168540096946,-0.7860455813974215,-3.629890227399569,6.305708296844103)"><g clip-path="url(#SvgjsClipPath41537)"><path d=" M -0.7241736765499449 4.241429756209131 C -0.46172480657226633 4.241429756209131 -0.24509942292271258 4.0248043725595775 -0.24509942292271258 3.7628189512426133 C -0.24509942292271258 3.5008330032794435 -0.46218825523298046 3.2842086729223006 -0.7246371252106591 3.2842086729223006 C -0.9866220198814182 3.2842086729223006 -1.202783428224052 3.5008330032794435 -1.202783428224052 3.7628189512426133 C -1.202783428224052 4.0248043725595775 -0.9861590978669091 4.241429756209131 -0.7241736765499449 4.241429756209131 Z M -0.7241736765499449 4.146075194267167 C -0.9366317087765074 4.146075194267167 -1.1065056554840966 3.975278563407792 -1.1065056554840966 3.7628189512426133 C -1.1065056554840966 3.5503603923698455 -0.9366317087765074 3.3800229970015416 -0.7246371252106591 3.3800229970015416 C -0.5121775130454805 3.3800229970015416 -0.34137561572405195 3.5503603923698455 -0.3409121670633377 3.7628189512426133 C -0.3404539848646768 3.975278563407792 -0.5117140643847662 4.146075194267167 -0.7241736765499449 4.146075194267167 Z M -0.8584052613713735 3.7202343390774346 C -0.8310986556236055 3.7202343390774346 -0.8079525548981592 3.6961666074926134 -0.8079525548981592 3.662376986956899 C -0.8079525548981592 3.6285873664211845 -0.8310986556236055 3.6045143683743097 -0.8584052613713735 3.6045143683743097 C -0.8852536849204805 3.6045143683743097 -0.9079310705231591 3.6285873664211845 -0.9079310705231591 3.662376986956899 C -0.9079310705231591 3.6961666074926134 -0.8852536849204805 3.7202343390774346 -0.8584052613713735 3.7202343390774346 Z M -0.5885517457463733 3.7202343390774346 C -0.5612398735365519 3.7202343390774346 -0.538099039273159 3.6961666074926134 -0.538099039273159 3.662376986956899 C -0.538099039273159 3.6285873664211845 -0.5612398735365519 3.6045143683743097 -0.5885517457463733 3.6045143683743097 C -0.6158583514941414 3.6045143683743097 -0.6380775548981591 3.6285873664211845 -0.6380775548981591 3.662376986956899 C -0.6380775548981591 3.6961666074926134 -0.6158583514941414 3.7202343390774346 -0.5885517457463733 3.7202343390774346 Z M -0.8866440309026234 3.8947385592225237 C -0.8866440309026234 3.9257474877939527 -0.8213767666727126 3.9900878547024345 -0.7246371252106591 3.9900878547024345 C -0.6274340350878913 3.9900878547024345 -0.5621667708579806 3.9257474877939527 -0.5621667708579806 3.8947385592225237 C -0.5621667708579806 3.883626324289488 -0.5732790057910162 3.878075473285024 -0.5834590769405698 3.8831681420908275 C -0.6172486974762841 3.9007528588877025 -0.6570578841392306 3.9215817163095776 -0.7246371252106591 3.9215817163095776 C -0.7917529176213735 3.9215817163095776 -0.8315621042843199 3.9007528588877025 -0.8653517248200342 3.8831681420908275 C -0.8755317959695877 3.878075473285024 -0.8866440309026234 3.883626324289488 -0.8866440309026234 3.8947385592225237 Z" fill="#fffdfa" transform="matrix(1,0,0,1,0,0)" fill-rule="nonzero"></path></g></g><g transform="matrix(0.7860455813974215,-0.618168540096946,-0.618168540096946,-0.7860455813974215,3.2314394682252554,9.336447601930404)"><g clip-path="url(#SvgjsClipPath41538)"><path d=" M 4.178598154269846 4.241429756209131 C 4.441047024247524 4.241429756209131 4.657672407897078 4.0248043725595775 4.657672407897078 3.7628189512426133 C 4.657672407897078 3.5008330032794435 4.4405835755868095 3.2842086729223006 4.178134705609131 3.2842086729223006 C 3.9161498109383723 3.2842086729223006 3.6999884025957384 3.5008330032794435 3.6999884025957384 3.7628189512426133 C 3.6999884025957384 4.0248043725595775 3.9166127329528813 4.241429756209131 4.178598154269846 4.241429756209131 Z M 4.178598154269846 4.146075194267167 C 3.966140122043283 4.146075194267167 3.7962661753356937 3.975278563407792 3.7962661753356937 3.7628189512426133 C 3.7962661753356937 3.5503603923698455 3.966140122043283 3.3800229970015416 4.178134705609131 3.3800229970015416 C 4.39059431777431 3.3800229970015416 4.561396215095739 3.5503603923698455 4.561859663756453 3.7628189512426133 C 4.562317845955113 3.975278563407792 4.391057766435024 4.146075194267167 4.178598154269846 4.146075194267167 Z M 4.0443665694484165 3.7202343390774346 C 4.071673175196185 3.7202343390774346 4.0948192759216315 3.6961666074926134 4.0948192759216315 3.662376986956899 C 4.0948192759216315 3.6285873664211845 4.071673175196185 3.6045143683743097 4.0443665694484165 3.6045143683743097 C 4.0175181458993094 3.6045143683743097 3.994840760296631 3.6285873664211845 3.994840760296631 3.662376986956899 C 3.994840760296631 3.6961666074926134 4.0175181458993094 3.7202343390774346 4.0443665694484165 3.7202343390774346 Z M 4.314220085073417 3.7202343390774346 C 4.341531957283238 3.7202343390774346 4.3646727915466315 3.6961666074926134 4.3646727915466315 3.662376986956899 C 4.3646727915466315 3.6285873664211845 4.341531957283238 3.6045143683743097 4.314220085073417 3.6045143683743097 C 4.286913479325649 3.6045143683743097 4.264694275921631 3.6285873664211845 4.264694275921631 3.662376986956899 C 4.264694275921631 3.6961666074926134 4.286913479325649 3.7202343390774346 4.314220085073417 3.7202343390774346 Z M 4.016127799917167 3.8947385592225237 C 4.016127799917167 3.9257474877939527 4.0813950641470775 3.9900878547024345 4.178134705609131 3.9900878547024345 C 4.2753377957318985 3.9900878547024345 4.34060505996181 3.9257474877939527 4.34060505996181 3.8947385592225237 C 4.34060505996181 3.883626324289488 4.329492825028774 3.878075473285024 4.31931275387922 3.8831681420908275 C 4.285523133343506 3.9007528588877025 4.24571394668056 3.9215817163095776 4.178134705609131 3.9215817163095776 C 4.111018913198417 3.9215817163095776 4.0712097265354705 3.9007528588877025 4.037420105999756 3.8831681420908275 C 4.027240034850203 3.878075473285024 4.016127799917167 3.883626324289488 4.016127799917167 3.8947385592225237 Z" fill="#fffdfa" transform="matrix(1,0,0,1,0,0)" fill-rule="nonzero"></path></g></g></g><defs><clipPath id="SvgjsClipPath41536"><path d=" M 0 0 h 3.4553513750413285 v 3.4553513750413285 h -3.4553513750413285 Z"></path></clipPath><mask id="maskedIcon-51643179-cc3d-492d-9311-6c7c9651d34a"><path d=" M 3.4553513750413285 1.7276756875206642 C 3.4553513750413285 2.6818447090678768 2.6818447090678768 3.4553513750413285 1.7276756875206642 3.4553513750413285 C 0.7735066659734517 3.4553513750413285 0 2.6818447090678768 0 1.7276756875206642 C 0 0.7735066659734517 0.7735066659734517 0 1.7276756875206642 0 C 2.6818447090678768 0 3.4553513750413285 0.7735066659734517 3.4553513750413285 1.7276756875206642 Z" fill="#ffffff" transform="matrix(1,0,0,1,0,0)" fill-rule="nonzero"></path><path d=" M 2.368909330615156 1.0514948325569355 L 2.2599919655834864 1.0514948325569355 L 2.2413476714100713 0.9378079969227653 L 2.2413476714100713 0.9367673851549471 C 2.2375415652357016 0.8976260044771781 2.2060039008919636 0.8669684609988374 2.1667704947164124 0.8642714319969214 L 1.2886675979722346 0.8642714319969214 C 1.2494341917966836 0.8669684609988374 1.2178965274529454 0.8976260044771781 1.2140904212785757 0.9367673851549471 L 1.2140904212785757 0.9378079969227653 L 1.1954461271051608 1.0514948325569355 L 1.0867889150154457 1.0514948325569355 C 1.046702612827668 1.0514948325569355 1.0142062442101059 1.0839912011744912 1.0142062442101054 1.1240775033622712 L 1.0142062442101054 1.3211867157165633 C 1.0142062442101054 1.3612730179043433 1.0467026128276669 1.3937693865219039 1.0867889150154448 1.3937693865219039 L 1.0907779267920834 1.3937693865219039 L 1.2035108683057543 2.545206307613071 C 1.205663136354287 2.5714504980788275 1.2274757772313305 2.591721210893868 1.2538071037503151 2.5919471195175854 L 2.201630988938332 2.5919471195175854 C 2.2279623154573165 2.591721210893868 2.2497749563343596 2.5714504980788275 2.2519272243828925 2.545206307613071 L 2.3646601658965634 1.3937693865219039 L 2.368909330615156 1.3937693865219039 C 2.409009684665611 1.3937694150734952 2.4415308666166897 1.3612870412154359 2.4415787190678144 1.3211867157165633 L 2.4415787190678144 1.1240775033622712 C 2.4415308666166946 1.0839771778634084 2.409009684665619 1.0514948040053442 2.3689093306151645 1.0514948325569355 Z M 1.0927724326804023 1.1295407151433168 L 1.4713816808716997 1.1295407151433168 C 1.4859441591555111 1.1305120862302196 1.49983593558737 1.123294077172976 1.5074121518943857 1.1108196921370588 C 1.5149883682014011 1.0983453071011415 1.5149883682014011 1.0826902405991108 1.5074121518943857 1.0702158555631935 C 1.49983593558737 1.0577414705272765 1.4859441591555111 1.0505234614700327 1.4713816808716997 1.0514948325569355 L 1.2745326214593666 1.0514948325569355 L 1.2910089744498263 0.9509890793151328 C 1.2915070355694374 0.9479435619042511 1.292534235932103 0.945008703725205 1.2940440921059637 0.9423173145833077 L 2.1612205652880467 0.9423173145833077 C 2.1627304214619074 0.945008703725205 2.1637576218245727 0.9479435619042511 2.164255682944184 0.9509890793151328 L 2.180732035934644 1.0514948325569355 L 2.121330447521671 1.0514948325569355 C 2.1067679692378602 1.0505234614700327 2.092876192806001 1.0577414705272765 2.0852999764989852 1.0702158555631935 C 2.07772376019197 1.0826902405991108 2.07772376019197 1.0983453071011415 2.0852999764989852 1.1108196921370588 C 2.092876192806001 1.123294077172976 2.1067679692378602 1.1305120862302196 2.121330447521671 1.1295407151433168 L 2.3629258129501998 1.1295407151433168 L 2.3629258129501998 1.315550068640873 L 2.332574636388827 1.315550068640873 C 2.329695840961564 1.3151808089639512 2.3267816670842687 1.3151808089639512 2.3239028716570056 1.315550068640873 L 1.1311883504423683 1.315550068640873 C 1.128309142643505 1.315187322554747 1.125395793509411 1.315187322554747 1.1225165857105477 1.315550068640873 L 1.0921654091491746 1.315550068640873 Z M 2.1767430241580064 2.5131207781053355 L 1.279302092061868 2.5131207781053355 L 1.1698644211462892 1.393682668874584 L 2.285400236247721 1.393682668874584 Z" fill="NA" transform="matrix(1,0,0,1,0,0)" fill-rule="nonzero"></path><path d=" M 1.9075714468822877 1.6561769873067993 C 1.828831823117354 1.605533881272966 1.695373363894632 1.6396139166690276 1.5940004341796463 1.740900128736689 C 1.4926275044646609 1.8421863408043506 1.458981057305196 1.974344035317304 1.5084968339238929 2.053083659082239 C 1.6101299165808332 1.8899677644766935 1.8061117995199836 1.8195530348543043 1.9075714468822877 1.6561769873067993 Z" fill="NA" transform="matrix(1,0,0,1,0,0)" fill-rule="nonzero"></path><path d=" M 1.5476932105117227 2.092800341553981 C 1.6264328342766559 2.143530165235139 1.759978011146697 2.1094501298390824 1.861264223214364 2.008077200124091 C 1.962550435282031 1.9067042704091097 1.9962836000888144 1.774633293543476 1.9467678234701176 1.6958936697785412 C 1.845134740813178 1.8590962820314114 1.6491528578740269 1.9295110116537957 1.5476932105117227 2.092800341553981 Z" fill="NA" transform="matrix(1,0,0,1,0,0)" fill-rule="nonzero"></path></mask><clipPath id="SvgjsClipPath41537"><path d=" M -1.4610149153892307 3.0437204230618096 h 1.4746093750000002 v 1.4746093750000002 h -1.4746093750000002 Z"></path></clipPath><clipPath id="SvgjsClipPath41538"><path d=" M 3.4417569154305596 3.0437204230618096 h 1.4746093750000002 v 1.4746093750000002 h -1.4746093750000002 Z"></path></clipPath></defs></svg>